<svg width="80" height="80" viewBox="0 0 80 80" fill="none" xmlns="http://www.w3.org/2000/svg">
<rect width="80" height="80" rx="40" fill="white"/>
<g clip-path="url(#clip0_3310_49171)">
<path d="M65.1999 36.144C65.1999 23.8848 60.8407 17.481 40.2526 17.481C19.6645 17.481 15.3052 23.8848 15.3052 36.144C15.3052 47.405 18.9978 53.726 35.5756 54.6726L37.7995 60.6316C38.6432 62.8921 41.8619 62.8921 42.7056 60.6316L44.9296 54.6726C61.5073 53.7209 65.1999 47.405 65.1999 36.144Z" fill="url(#paint0_linear_3310_49171)"/>
<path d="M29.1591 41.8237L32.2371 38.7666C33.2684 37.7424 34.9402 37.7424 35.9714 38.7666L37.2683 40.0546C37.8672 40.6495 38.7943 40.7943 39.5339 40.3857C40.5286 39.8374 41.4974 39.1184 42.3827 38.239C43.2681 37.3597 43.9921 36.3975 44.5442 35.4096C44.9556 34.675 44.8098 33.7543 44.2108 33.1594L42.914 31.8714C41.8828 30.8472 41.8828 29.1868 42.914 28.1626L45.992 25.1055C47.0233 24.0814 48.6951 24.0814 49.7263 25.1055L51.6169 26.9832C53.4398 31.3335 50.1326 36.2372 45.2473 41.084C40.3672 45.9308 35.435 49.2155 31.0549 47.405L29.1643 45.5274C28.1331 44.5032 28.1331 42.8427 29.1643 41.8185L29.1591 41.8237Z" fill="url(#paint1_linear_3310_49171)"/>
</g>
<defs>
<linearGradient id="paint0_linear_3310_49171" x1="15.3052" y1="39.9046" x2="65.1999" y2="39.9046" gradientUnits="userSpaceOnUse">
<stop stop-color="#9EE1FE"/>
<stop offset="1" stop-color="#62B6F5"/>
</linearGradient>
<linearGradient id="paint1_linear_3310_49171" x1="40.249" y1="24.3396" x2="40.2527" y2="47.9132" gradientUnits="userSpaceOnUse">
<stop stop-color="white"/>
<stop offset="0.15" stop-color="white" stop-opacity="0.85"/>
<stop offset="0.3" stop-color="white" stop-opacity="0.72"/>
<stop offset="0.46" stop-color="white" stop-opacity="0.62"/>
<stop offset="0.62" stop-color="white" stop-opacity="0.55"/>
<stop offset="0.8" stop-color="white" stop-opacity="0.51"/>
<stop offset="1" stop-color="white" stop-opacity="0.5"/>
</linearGradient>
<clipPath id="clip0_3310_49171">
<rect width="49.8947" height="44.8421" fill="white" transform="translate(15.3052 17.481)"/>
</clipPath>
</defs>
</svg>
