<svg width="80" height="80" viewBox="0 0 80 80" fill="none" xmlns="http://www.w3.org/2000/svg">
<rect width="80" height="80" rx="40" fill="white"/>
<g clip-path="url(#clip0_3310_43823)">
<path d="M40.2337 17.0706C26.6283 17.0706 15.6021 25.7735 15.6021 36.5142C15.6021 43.4271 20.1748 49.4729 27.0338 52.9294L24.7137 61.5873C24.6236 61.8462 24.6911 62.1389 24.8939 62.3303C25.029 62.4654 25.198 62.533 25.4007 62.533C25.5471 62.533 25.6935 62.4654 25.8287 62.3641L35.8074 55.6314C37.2491 55.8341 38.7357 55.9579 40.245 55.9579C53.8503 55.9579 64.8765 47.255 64.8765 36.5142C64.8765 25.7735 53.8278 17.0706 40.2337 17.0706Z" fill="#392020"/>
<path d="M24.2406 33.4406H21.5601C21.1884 33.4406 20.873 33.3505 20.6027 33.1816C20.3324 33.024 20.1748 32.7763 20.1072 32.4611C20.0959 32.3822 20.0734 32.2809 20.0621 32.1908C20.0621 31.7968 20.1973 31.4928 20.4789 31.2789C20.7604 31.065 21.1096 30.9524 21.5376 30.9524H29.7368C30.1085 30.9524 30.4238 31.0425 30.6829 31.2001C30.9532 31.369 31.1109 31.6054 31.1784 31.9206C31.1897 32.0107 31.201 32.0895 31.201 32.1908C31.201 32.5962 31.0658 32.8889 30.7955 33.1141C30.5252 33.328 30.1761 33.4406 29.7481 33.4406H27.0675V42.6726C27.0675 43.1117 26.9324 43.472 26.6734 43.7422C26.4256 44.0124 26.0652 44.1475 25.6372 44.1475C25.2768 44.1475 24.9839 44.0462 24.7249 43.8548C24.4771 43.6521 24.3194 43.3819 24.2519 43.0554C24.2293 42.9316 24.2181 42.8077 24.2293 42.6726V33.4406H24.2406Z" fill="#FFE600"/>
<path d="M31.9105 31.6167C32.0231 31.2902 32.2033 31.0651 32.4286 30.93C32.6539 30.7948 32.9467 30.7273 33.2958 30.7273H33.9829C34.3545 30.7273 34.6586 30.8061 34.9064 30.9525C35.1542 31.0988 35.3569 31.3916 35.4921 31.8081L38.9159 41.727C39.0286 42.031 39.1074 42.3012 39.1524 42.5151C39.175 42.6615 39.1975 42.774 39.2088 42.8529C39.2088 43.2131 39.0736 43.5171 38.8033 43.7648C38.5443 44.0238 38.2289 44.1363 37.8572 44.1363C37.204 44.1363 36.776 43.8661 36.5845 43.3257L35.8525 41.1641H31.2911L30.559 43.3257C30.3788 43.8661 29.9621 44.1363 29.2863 44.1363C28.9597 44.1363 28.6781 44.0575 28.4529 43.8774C28.2276 43.7085 28.0812 43.4608 28.0136 43.1456C27.9911 43.0555 27.9911 42.9542 27.9911 42.8416C27.9911 42.6952 28.0024 42.5264 28.0699 42.3237C28.1262 42.121 28.1938 41.9184 28.2614 41.7157L31.933 31.6167H31.9105ZM33.6225 33.9135H33.5887L31.9218 39.115H35.2443L33.6337 33.9135H33.6225Z" fill="#FFE600"/>
<path d="M39.6255 32.1909C39.6255 31.7519 39.7607 31.3916 40.0085 31.1214C40.2562 30.8512 40.6054 30.7161 41.0446 30.7161C41.405 30.7161 41.7091 30.8174 41.9569 31.0088C42.2047 31.2114 42.3624 31.4704 42.4299 31.8082C42.4525 31.932 42.4637 32.0558 42.4525 32.1797V41.4118H47.1828C47.5657 41.4118 47.8811 41.4906 48.1401 41.6595C48.3992 41.8284 48.5569 42.076 48.6244 42.38C48.647 42.4588 48.6582 42.5602 48.6695 42.6502C48.6695 43.0443 48.5343 43.3483 48.2528 43.5622C47.9712 43.7761 47.6221 43.8887 47.1941 43.8887H41.2811C40.8419 43.8887 40.4815 43.7986 40.2112 43.6185C39.9409 43.4496 39.7607 43.1456 39.6706 42.7403C39.6368 42.5714 39.6143 42.38 39.6143 42.1661V32.1684L39.6255 32.1909Z" fill="#FFE600"/>
<path d="M48.9623 32.191C48.9623 31.7519 49.0862 31.3916 49.3452 31.1214C49.6043 30.8512 49.9421 30.7161 50.3814 30.7161C50.7418 30.7161 51.0459 30.8174 51.2824 31.0088C51.5302 31.2115 51.6879 31.4704 51.7554 31.8082C51.778 31.932 51.7892 32.0559 51.778 32.1797V36.4693L56.238 31.3466C56.4407 31.1327 56.6209 30.9638 56.7786 30.8625C56.9476 30.7611 57.139 30.7048 57.3643 30.7048C57.6796 30.7048 57.9612 30.7949 58.209 30.9638C58.468 31.1327 58.6144 31.3578 58.682 31.6506C58.682 31.6506 58.682 31.7069 58.7045 31.7631C58.7045 31.8082 58.7045 31.8532 58.7045 31.887C58.7045 32.0896 58.6595 32.2698 58.5694 32.4274C58.4793 32.585 58.3667 32.7427 58.2315 32.9003L55.3145 36.0865L58.7608 41.5469L58.8622 41.7158C59.0987 42.0873 59.2339 42.3575 59.2677 42.5377C59.2677 42.5489 59.2677 42.5827 59.2902 42.6277C59.2902 42.6728 59.2902 42.7066 59.2902 42.7178C59.2902 43.2245 59.1438 43.5847 58.8622 43.8099C58.5806 44.0238 58.2315 44.1364 57.826 44.1364C57.5332 44.1364 57.308 44.0914 57.1165 43.9788C56.9363 43.8662 56.7448 43.6635 56.5646 43.3596L53.2984 38.1018L51.7442 39.723V42.6615C51.7442 43.1006 51.6315 43.4609 51.3725 43.7311C51.1135 44.0013 50.7643 44.1364 50.3363 44.1364C49.9759 44.1364 49.6718 44.0351 49.4241 43.8437C49.1763 43.641 49.0186 43.3708 48.951 43.0443C48.9285 42.9205 48.9172 42.7966 48.9285 42.6615V32.1797L48.9623 32.191Z" fill="#FFE600"/>
</g>
<defs>
<clipPath id="clip0_3310_43823">
<rect width="49.2632" height="45.4737" fill="white" transform="translate(15.6021 17.0706)"/>
</clipPath>
</defs>
</svg>
