<svg width="80" height="80" viewBox="0 0 80 80" fill="none" xmlns="http://www.w3.org/2000/svg">
<rect width="80" height="80" rx="40" fill="white"/>
<g clip-path="url(#clip0_3310_42075)">
<path d="M27.2473 46.9615L34.1268 45.2067L38.1896 60.4586C38.6852 62.3188 37.5458 64.22 35.6448 64.7049C33.7438 65.1898 31.801 64.0748 31.3055 62.2146L27.2427 46.9626L27.2473 46.9615Z" fill="url(#paint0_linear_3310_42075)"/>
<path d="M34.1184 45.1995L27.2389 46.9543L28.1157 50.2458L34.9952 48.491L34.1184 45.1995Z" fill="url(#paint1_linear_3310_42075)"/>
<path d="M59.7018 35.881L51.5862 40.7523L47.8098 26.5818L57.3224 26.9597C58.6861 27.0157 59.8496 27.9302 60.1929 29.2227L61.075 32.5355C61.4183 33.828 60.8604 35.1858 59.697 35.881H59.7018Z" fill="#18797A"/>
<path d="M23.8272 32.6973L30.3468 31.0343L34.1222 45.2072L27.6026 46.8702C23.6056 47.8849 19.5164 45.5382 18.4748 41.6281C17.4333 37.718 19.8314 33.7166 23.8272 32.6973Z" fill="url(#paint2_linear_3310_42075)"/>
<path d="M30.3486 31.0331L34.1251 45.2036C37.0289 44.4617 40.0472 44.275 43.0178 44.653L57.8613 46.5287L50.4038 18.533L38.3831 27.263C35.9751 29.0127 33.2477 30.2912 30.3439 31.0331H30.3486Z" fill="url(#paint3_linear_3310_42075)"/>
<path d="M53.3731 17.7966C52.9459 16.1932 51.2724 15.232 49.6352 15.6496C47.9979 16.0672 47.0169 17.7056 47.444 19.309L54.8937 47.2754C55.3208 48.8788 56.9943 49.84 58.6316 49.4224C60.2688 49.0048 61.2499 47.3664 60.8227 45.763L53.3731 17.7966Z" fill="url(#paint4_linear_3310_42075)"/>
<path d="M34.712 47.3989L36.1285 47.0376C37.1113 46.7869 38.1176 47.3644 38.3738 48.3261L38.9367 50.4392C39.1929 51.4009 38.6027 52.3856 37.6199 52.6363L36.2034 52.9976L34.712 47.3989Z" fill="url(#paint5_linear_3310_42075)"/>
</g>
<defs>
<linearGradient id="paint0_linear_3310_42075" x1="30.5509" y1="47.4689" x2="36.5246" y2="65.4631" gradientUnits="userSpaceOnUse">
<stop stop-color="#F9F7F8"/>
<stop offset="0.41" stop-color="#F0EEF8"/>
<stop offset="1" stop-color="#E9E7F9"/>
</linearGradient>
<linearGradient id="paint1_linear_3310_42075" x1="30.7688" y1="46.406" x2="31.3762" y2="48.7873" gradientUnits="userSpaceOnUse">
<stop stop-color="#CDCAE3"/>
<stop offset="0.29" stop-color="#D4D1E6"/>
<stop offset="0.72" stop-color="#E8E5EF"/>
<stop offset="1" stop-color="#F9F7F8"/>
</linearGradient>
<linearGradient id="paint2_linear_3310_42075" x1="20.9027" y1="35.4444" x2="33.4566" y2="43.2563" gradientUnits="userSpaceOnUse">
<stop stop-color="#FF8543"/>
<stop offset="1" stop-color="#FF375A"/>
</linearGradient>
<linearGradient id="paint3_linear_3310_42075" x1="34.8433" y1="27.4464" x2="57.5512" y2="41.5846" gradientUnits="userSpaceOnUse">
<stop stop-color="#F9F7F8"/>
<stop offset="0.41" stop-color="#F0EEF8"/>
<stop offset="1" stop-color="#E9E7F9"/>
</linearGradient>
<linearGradient id="paint4_linear_3310_42075" x1="49.3105" y1="18.6207" x2="60.0007" y2="50.832" gradientUnits="userSpaceOnUse">
<stop stop-color="#FF8543"/>
<stop offset="1" stop-color="#FF375A"/>
</linearGradient>
<linearGradient id="paint5_linear_3310_42075" x1="36.4564" y1="47.5471" x2="37.49" y2="51.599" gradientUnits="userSpaceOnUse">
<stop stop-color="#FF8543"/>
<stop offset="1" stop-color="#FF375A"/>
</linearGradient>
<clipPath id="clip0_3310_42075">
<rect width="42.9474" height="49.2632" fill="white" transform="translate(18.2325 15.5515)"/>
</clipPath>
</defs>
</svg>
